
<svg version="1.1" id="camera1" xmlns="http://www.w3.org/2000/svg" xmlns:xlink="http://www.w3.org/1999/xlink" x="0px" y="0px"
	 viewBox="0 0 547 387" style="enable-background:new 0 0 547 387;" xml:space="preserve">
  <g id="_x34_vY1cp.tif">
  	<g>
  		<g>
  			<path class="st0" d="M528,159c-1.3,5.8-2.4,11.7-4.1,17.4c-11.8,40.2-49.9,66.9-91.6,64.3c-50.4-3.1-89.2-48.2-84.1-98.3
  				c4.8-47.6,42.9-79,84-81.3c47.5-2.7,86.7,30.3,94.4,75.2c0.4,2.3,0.9,4.5,1.3,6.8C528,148.3,528,153.7,528,159z M513.2,166.2
  				c-0.1-15-12.4-27.3-27.4-27.3c-14.9,0-27.3,12.4-27.4,27.4c-0.1,15.2,12.6,27.8,27.7,27.6C501,193.7,513.3,181.1,513.2,166.2z
  				 M453.2,130.2c15,0.1,27.5-12.1,27.8-27.1c0.2-15.3-12.3-27.6-28.1-27.6c-14.5,0-26.9,12.3-26.9,26.7
  				C425.9,117.7,438,130.1,453.2,130.2z M394.9,199c-0.1,14.3,12.2,26.9,26.5,27.1c15.7,0.3,28-11.7,28.3-27.4
  				c0.3-14.5-12.3-27.3-26.9-27.3C407,171.3,395,183.2,394.9,199z M417.2,135.2c0.1-15.2-12-27.4-27.1-27.4
  				c-15.2,0-27.3,11.9-27.5,27.1c-0.2,15.4,12,27.6,27.4,27.5C405.3,162.5,417.1,150.6,417.2,135.2z"/>
  			<path class="st1" d="M359.4,340.9c0,7.4,0,14,0,20.8c-47.3,0-94,0-141.5,0c0-5.4-0.2-10.5,0.1-15.6c0.2-4-1.2-5.1-5.1-5
  				c-16.5,0.2-33,0.2-49.5,0.1c-9.3,0-12.3-3-12.4-12.2c0-2,0-4-0.1-6c-0.4-7.1-3.9-10.6-11.1-10.8c-4.8-0.2-9.7-0.1-14.5-0.2
  				c-8.2-0.1-11.5-3.1-11.6-11.4c-0.2-13.8-0.1-27.6-0.1-41.5c0-21.8,0-43.6,0.1-65.5c0.1-8.7,3.1-11.6,11.8-11.7
  				c5.2-0.1,10.3,0.1,15.5,0c8.1-0.1,11.9-3.9,12-12c0.1-7.2,1-8.8,6.6-11.8c18.6,31,45.3,50.5,81.7,54.9
  				c36.3,4.4,66.6-8.1,92.2-33.8c16.4,48.5,50,74.9,101.4,79.5c0,5.8,0,11.8,0,17.7c0,17.3-0.1,34.7-0.1,52c0,9.3-3,12.4-12.2,12.4
  				c-19.2,0-38.3,0-57.5,0.1C363.6,340.9,362,340.9,359.4,340.9z"/>
  			<path class="st2" d="M254.5,16.7c50,0.2,89.9,40.5,89.7,90.6c-0.2,48.9-40.9,89.5-89.7,89.4c-49.6-0.1-90.7-41-90.3-89.8
  				C164.6,56.6,204.8,16.5,254.5,16.7z M274.9,90.6c-0.3,15.3,11.9,27.9,27.2,28.1c14.8,0.2,27.5-12.1,27.8-27
  				c0.3-14.8-12-27.5-27-27.8C287.9,63.5,275.1,75.7,274.9,90.6z M297.1,154.6c0.1-14.9-12.5-27.5-27.3-27.5
  				c-15,0.1-27.2,12.2-27.6,27.3c-0.3,14.6,12.4,27.6,27.2,27.6C284.9,182,297,170,297.1,154.6z M211.7,58.3
  				c0.1,15.6,12.2,27.9,27.4,27.7c15-0.1,27.3-12.5,27.2-27.5c-0.1-15.4-12.3-27.4-27.7-27.4C223.8,31.1,211.6,43.5,211.7,58.3z
  				 M206.2,149.2c14.7,0.3,27.2-11.8,27.6-26.5c0.4-15.1-11.5-27.7-26.5-28.1c-15.4-0.4-28.1,11.7-28.4,26.8
  				C178.6,136.7,190.7,149,206.2,149.2z"/>
  			<path class="st3" d="M16.7,373.1c0-86.8,0-173.5,0-261.8c4.8,3.9,8.6,6.9,12.3,10c5.3,4.4,10.3,8.9,15.7,13.1
  				c2.6,2.1,3.6,4.4,3.6,7.6c-0.1,21.3-0.1,42.6-0.1,63.9c0,38.3,0,76.6,0,114.9c0,8.3,0.1,16.7-0.1,25c0,1.8-0.8,4.1-2.1,5.1
  				c-9.2,7.4-18.7,14.5-28.1,21.7C17.6,373,17.1,373,16.7,373.1z"/>
  			<path class="st4" d="M66.1,341.5c0-65.6,0-129.9,0-194.8c1.4,1,2.4,1.6,3.4,2.3c7.2,6,14.2,12.1,21.5,17.9
  				c2.6,2.1,3.6,4.3,3.6,7.6c-0.1,28.3,0,56.6,0,84.9c0,18.3-0.2,36.6,0.1,54.9c0.1,4-1.1,6.4-4.3,8.7
  				C82.5,328.9,74.8,334.9,66.1,341.5z"/>
  		</g>
  	</g>
  </g>
</svg>
