<?xml version="1.0" encoding="utf-8"?>
<!-- Generator: Adobe Illustrator 19.2.0, SVG Export Plug-In . SVG Version: 6.00 Build 0)  -->
<svg version="1.1" id="ig-icon" xmlns="http://www.w3.org/2000/svg" xmlns:xlink="http://www.w3.org/1999/xlink" x="0px" y="0px"
	 viewBox="0 0 300 298.6" style="enable-background:new 0 0 300 298.6;" xml:space="preserve">
<circle class="social-circle" cx="150" cy="153.2" r="141.4"/>
<g id="Pbz9r5.tif">
	<g>
		<g>
			<path class="social-path" d="M62.2,157.5c0-17.5,0-35.1,0-52.6c0-17.4,11.2-30.9,28.3-34c2.2-0.4,4.5-0.5,6.8-0.5c34.8,0,69.5,0,104.3,0
				c8.5,0,16.2,2.4,22.8,7.9c7.7,6.6,12,15,12,25.1c0.1,36.1,0.1,72.3,0,108.4c-0.1,18-15.2,32.8-33.5,32.9
				c-35.7,0.1-71.5,0.1-107.2,0c-18.4-0.1-33.1-14.7-33.4-33.2c-0.1-9,0-18,0-27C62.2,175.5,62.2,166.5,62.2,157.5z M79.3,139.7
				c0,0.5-0.1,0.9-0.1,1.2c0,23.4,0,46.7,0,70c0,1.5,0.3,3,0.6,4.4c1.5,6.4,7.9,12.4,16.9,12.4c35.2-0.1,70.3-0.1,105.5-0.1
				c10.1,0,17.3-7.1,17.3-17.2c0.1-23,0-45.9,0-68.9c0-1.6-0.5-2-2-2c-7.4,0.1-14.7,0-22.1,0c-0.6,0-1.1,0.1-1.6,0.1
				c7,22.7,2.4,42.1-16.8,56.3c-16.1,11.9-34.1,12.9-51.3,2.6c-22.5-13.6-28.3-34.2-21-59C96.4,139.7,87.9,139.7,79.3,139.7z
				 M149.3,188.2c16.8,0,30.6-13.7,30.7-30.3c0.1-17.1-13.7-30.9-30.7-30.9c-17,0-30.7,13.7-30.7,30.7
				C118.7,174.4,132.5,188.2,149.3,188.2z M216.2,119.9c0-9.8,0-19.6,0-29.3c-9.8,0-19.5,0-29.2,0c0,9.8,0,19.5,0,29.3
				C196.8,119.9,206.4,119.9,216.2,119.9z"/>
		</g>
	</g>
</g>
</svg>
