<?xml version="1.0" encoding="utf-8"?>
<!-- Generator: Adobe Illustrator 19.2.0, SVG Export Plug-In . SVG Version: 6.00 Build 0)  -->
<svg version="1.1" id="tw-icon" xmlns="http://www.w3.org/2000/svg" xmlns:xlink="http://www.w3.org/1999/xlink" x="0px" y="0px"
	 viewBox="0 0 300 298.6" style="enable-background:new 0 0 300 298.6;" xml:space="preserve">
<circle class="social-circle" cx="150" cy="153.2" r="141.4"/>
<path class="social-path" d="M185,73.8c2,0,4.1,0,6.1,0c0.2,0.2,0.5,0.2,0.8,0.2c2.6,0.2,5.1,0.7,7.5,1.5c6.6,2,12.3,5.5,17.1,10.4
	c0.4,0.4,0.8,0.6,1.3,0.5c7.1-1.5,13.9-3.9,20.4-7.2c1.4-0.7,2.7-1.5,4.1-2.2c0.1,0.2,0.1,0.2,0.1,0.3c0,0.2-0.1,0.3-0.1,0.5
	c-2.3,6.5-6,12.1-11.2,16.8c-1.8,1.6-3.8,2.9-5.6,4.3c0,0,0,0,0,0.1c0,0,0,0,0-0.1c0.4,0.1,0.8,0,1.1,0c5.7-0.8,11.2-2.2,16.6-4.2
	c1.5-0.6,2.9-1.3,4.5-1.7c0,0,0,0,0,0c-0.1,0.2-0.1,0.4-0.2,0.5c-5.2,7.5-11.3,14-18.6,19.4c-0.7,0.5-0.9,1-0.9,1.9
	c0.4,9.5-0.5,18.8-2.6,28.1c-2.3,10.4-5.9,20.4-10.9,29.8c-6.3,12-14.4,22.7-24.4,31.8c-9.2,8.4-19.5,15-30.9,19.8
	c-8.4,3.5-17.1,5.9-26.1,7.3c-7.6,1.2-15.2,1.6-22.8,1.4c-9.7-0.3-19.2-1.8-28.5-4.5c-9.1-2.7-17.7-6.4-25.8-11.2
	c-1.1-0.6-2.2-1.2-3.4-2.2c21.9,2.1,41.4-3.3,58.7-16.5c-0.4-0.2-0.7-0.2-1-0.2c-1.6-0.1-3.2-0.3-4.8-0.6
	c-8.6-1.6-15.9-5.5-21.9-11.8c-4.1-4.2-7-9.1-9-14.6c-0.2-0.7-0.1-0.9,0.7-0.8c3.8,0.7,7.7,0.8,11.6,0.3c1.7-0.2,3.4-0.4,5-1.1
	c-0.8-0.3-1.5-0.5-2.3-0.7c-9-2.6-16.2-7.6-21.7-15.2c-4.9-6.8-7.4-14.5-7.6-22.9c0-1.1,0-1.1,1-0.6c5,2.6,10.2,4,15.8,4.4
	c0.2,0,0.6,0.2,0.8-0.2c-0.2-0.2-0.5-0.4-0.7-0.6c-9.3-6.9-14.7-16.1-16.3-27.5c-1.1-8.6,0.5-16.7,4.6-24.4c0.5-0.8,0.7-0.7,1.2-0.1
	c2.2,2.7,4.5,5.2,7,7.7c5.8,5.8,12.1,10.9,19,15.4c9.1,5.9,18.8,10.4,29.2,13.5c8.5,2.5,17.1,4,26,4.6c0.7,0,0.9-0.1,0.7-0.8
	c-2-10.3-0.6-20.1,5-29.1c6.4-10.4,15.7-16.7,27.8-18.8C182.5,74.1,183.8,74,185,73.8z"/>
</svg>
