<?xml version="1.0" encoding="utf-8"?>
<!-- Generator: Adobe Illustrator 19.2.0, SVG Export Plug-In . SVG Version: 6.00 Build 0)  -->
<svg version="1.1" id="vimeo-icon" xmlns="http://www.w3.org/2000/svg" xmlns:xlink="http://www.w3.org/1999/xlink" x="0px" y="0px"
	 viewBox="0 0 300 298.6" style="enable-background:new 0 0 300 298.6;" xml:space="preserve">
<circle class="social-circle" cx="150" cy="153.2" r="141.4"/>
<g id="lfxAkS.tif">
	<g>
		<g>
			<path class="social-path" d="M44.8,114.4c0-0.2,0.1-0.3,0.1-0.5c0.9-0.3,1.5-1.1,2.2-1.6c12.5-10.1,24.4-21,37.4-30.5
				c5-3.7,10.2-7.1,16-9.3c9.4-3.6,18.1-2.7,25.7,4.3c5.6,5.1,8.1,12,9.8,19.2c2.5,10.7,4,21.6,5.8,32.4c2.1,12.2,4.6,24.4,9.1,36.1
				c1.4,3.7,3,7.2,5.6,10.2c2.8,3.1,5.4,3.5,8.9,1.2c1.9-1.2,3.5-2.7,5-4.3c9-9.8,16-20.9,21.7-32.9c2-4.2,3.3-8.7,3.5-13.4
				c0.4-8.4-4.1-13.4-12.5-13.8c-5.8-0.3-11.3,1-16.8,2.7c-0.1-0.1-0.1-0.1-0.3-0.3c1.9-6.8,4.8-13.1,8.5-19
				c9.4-15.1,22.7-24,40.5-26c1.2-0.1,2.5,0.1,3.6-0.4c2.5,0,6-0.1,8.5-0.2c1.4,0.6,2.9,0.4,4.3,0.6c10.6,1.7,18.3,7.1,21.9,17.5
				c3.5,9.9,3.5,20.1,1.2,30.3c-3,13.3-9.6,25.1-16.8,36.4c-8.9,14-19.3,26.9-30.1,39.5c-10.2,11.8-20.9,23-33.5,32.3
				c-7.7,5.7-16,10.4-25.4,12.8c-10,2.5-18.9,0.8-26.1-7.1c-6.6-7.3-11.1-15.9-14.1-25.1c-3-8.9-5.3-18-8.1-27
				c-4.4-14.2-7.8-28.7-13.2-42.6c-2.3-6-5-11.8-9.8-16.3c-3.2-3-5.8-3.5-9.7-1.4c-3.9,2.2-7.8,4.6-11.6,7c-1.1,0.7-1.7,0.6-2.5-0.4
				C50.8,121.3,47.8,117.9,44.8,114.4z"/>
		</g>
	</g>
</g>
</svg>
