<?xml version="1.0" encoding="utf-8"?>
<!-- Generator: Adobe Illustrator 19.2.0, SVG Export Plug-In . SVG Version: 6.00 Build 0)  -->
<svg version="1.1" id="vine-icon" xmlns="http://www.w3.org/2000/svg" xmlns:xlink="http://www.w3.org/1999/xlink" x="0px" y="0px"
	 viewBox="0 0 300 298.6" style="enable-background:new 0 0 300 298.6;" xml:space="preserve">
<circle class="social-circle" cx="150" cy="153.2" r="141.4"/>
<g id="CueFcj.tif">
	<g>
		<g>
			<path class="social-path" d="M188.7,52.6c3.6,0,7.2,0,10.8,0c1,0.7,2.3,0.4,3.4,0.6c17.1,2.6,28.3,12.1,33.3,28.7
				c2.6,8.6,3,17.5,2.3,26.4c-0.7,9.3-2.7,18.3-6.3,26.9c-0.3,0.7-0.7,1.1-1.5,1.2c-2.7,0.4-5.4,0.7-8.1,0.5c-7.5-0.4-14-2.9-19-8.7
				c-0.8-1-1-1.8-0.6-3.1c2.2-7.6,3.7-15.3,3.3-23.2c-0.2-4.8-0.9-9.5-3.5-13.6c-4.1-6.5-12.8-7.3-18.1-1.7
				c-2.1,2.2-3.4,4.8-4.1,7.7c-2.5,9.5-1.9,19.1,0.7,28.4c5.3,19,20.4,30.8,40.1,31.8c5.9,0.3,11.6-0.4,17.3-1.6
				c0,0.1,0.1,0.2,0.1,0.4c0,7.6,0,15.2,0,22.8c0,0.8-0.4,0.9-1,1.1c-7.1,1.6-14.3,2.4-21.6,2.5c-1.1,0-1.7,0.4-2.2,1.4
				c-11.2,22.6-26.1,42.5-44,60.1c-3.5,3.5-7.2,6.8-11.4,9.6c-4.3,2.9-9,4.4-14.2,3.3c-3.6-0.8-6.7-2.6-9.6-4.6
				c-7.7-5.4-14.1-12.2-20-19.4c-10.9-13.6-19.4-28.7-26.3-44.6c-13-29.8-20.4-61.1-25.2-93c-0.4-2.4-0.3-4.9-1.3-7.3
				c0-0.8,0-1.5,0-2.3c0.6,0.3,1.2,0.2,1.8,0.2c10,0,20,0,30,0c2.7,0,2.6,0,3,2.6c2.2,18,5.4,35.9,10.2,53.4
				c8,29.3,20.7,56.2,39.9,79.9c0.8,1,1.5,2.7,2.6,2.7c0.9,0,1.8-1.6,2.7-2.5c12.8-13.5,23.1-28.8,31.6-45.3
				c0.5-0.9,0.3-1.2-0.6-1.7c-11.8-6.4-20.5-15.7-26.7-27.5c-5.5-10.5-8.3-21.7-9-33.5c-0.6-9.7,0.3-19.3,3.7-28.5
				c5.7-15.1,16.1-25.1,32.1-28.8C184.9,53.3,186.9,53.4,188.7,52.6z"/>
		</g>
	</g>
</g>
</svg>
