<?xml version="1.0" encoding="utf-8"?>
<!-- Generator: Adobe Illustrator 19.2.0, SVG Export Plug-In . SVG Version: 6.00 Build 0)  -->
<svg version="1.1" id="yt-icon" xmlns="http://www.w3.org/2000/svg" xmlns:xlink="http://www.w3.org/1999/xlink" x="0px" y="0px"
	 viewBox="0 0 300 298.6" style="enable-background:new 0 0 300 298.6;" xml:space="preserve">
<circle class="social-circle" cx="150" cy="153.2" r="141.4"/>
<g>
	<g>
		<path class="social-path" d="M142.9,90.1c4.9,0,9.7,0,14.6,0c0.3,0.1,0.6,0.2,0.8,0.2c4.6,0.1,9.1,0.1,13.7,0.2c5.8,0.1,11.6,0.2,17.3,0.4
			c6.7,0.2,13.5,0.5,20.2,0.9c3.1,0.2,6.3,0.4,9.3,1c6.3,1.3,11.4,4.5,14.7,10.1c2.6,4.4,4,9.3,4.7,14.4c1.1,8.4,1.7,16.9,1.8,25.3
			c0.1,7.9,0.1,15.7-0.1,23.6c-0.2,6-0.7,12.1-1.1,18.1c-0.3,4.7-1.2,9.3-2.6,13.8c-3.2,9.7-9.9,15.2-19.9,16.3
			c-5.7,0.7-11.5,0.9-17.3,1.2c-7,0.3-13.9,0.5-20.9,0.7c-6.8,0.2-13.5,0.2-20.3,0.3c-0.4,0-0.7,0.1-1.1,0.1c-3.3,0-6.7,0-10,0
			c-0.2,0-0.4-0.1-0.7-0.1c-4.2-0.1-8.4-0.1-12.6-0.2c-5.6-0.1-11.1-0.2-16.7-0.4c-8.1-0.3-16.3-0.5-24.4-1
			c-4.1-0.3-8.2-0.8-12.2-1.8c-6.3-1.5-11.2-5.1-14.1-11.1c-2.1-4.4-3.4-9.1-3.9-14c-0.9-8-1.5-16.1-1.6-24.2
			c-0.1-7.6-0.2-15.3,0-22.9c0.2-6.1,0.7-12.2,1.2-18.3c0.3-5,1.2-9.8,2.8-14.5c2.8-8.3,8.3-13.6,16.8-15.4c4.2-0.9,8.7-1,13-1.3
			c4.9-0.3,9.8-0.5,14.7-0.7c7.1-0.2,14.1-0.4,21.2-0.5c4-0.1,8-0.1,12.1-0.1C142.3,90.2,142.6,90.1,142.9,90.1z M180.2,151.5
			c-16.3-8.5-32.4-16.9-48.5-25.3c0,16.9,0,33.6,0,50.5C147.9,168.3,163.9,160,180.2,151.5z"/>
	</g>
</g>
</svg>
